<svg id="Calque_1" data-name="Calque 1" xmlns="http://www.w3.org/2000/svg" viewBox="0 0 461.4 330.81"><defs><style>.cls-1{fill:#261000;}.cls-2{fill:#261101;}.cls-3{fill:#261001;}.cls-4{fill:#7f6e60;stroke:#000;stroke-miterlimit:10;stroke-width:5px;}.cls-5{fill:#281203;}.cls-6{fill:#908073;}.cls-7{fill:#968679;}.cls-8{fill:#847366;}.cls-9{fill:#857364;}.cls-10{fill:#827063;}.cls-11{fill:#847365;}.cls-12{fill:#705e51;}</style></defs><title>1_loader_100</title><path class="cls-1" d="M45.64,268.91c-2.51-6.9-8.57-9.09-15.19-9.25-9.47-.22-18.95.17-28.43.24-1.78,0-2.19.69-2,2.42,2.31,18.22,1.2,36.5.9,54.77C.88,320.9.4,324.7.11,328.5c3.73.11,7.46.22,11.19.35,1,0,1.95.13,3.32.23-2-7.88-1.69-15.65-1.7-23.4,0-7.28,0-7.34,7.19-7.31,8.28,0,16-1.6,21.73-8C47.45,284.07,48.45,276.63,45.64,268.91ZM20.7,292.14c-1.33,0-2.66-.11-4,0-3.09.32-4.06-1-3.83-4s.06-6.3.06-9.45H13c0-2.32,0-4.64,0-7,.18-6.82.2-6.82,7.24-6.89,9.33-.1,14.31,4.4,14.53,13.12C35,286.84,29.92,292,20.7,292.14Z"/><path class="cls-1" d="M331.94,317.13c-.63,9.67-1.62,10.8-10,12.22s-16.58,1.84-24.73-.55c-14.67-4.32-23.81-17.53-23.9-34.23s9.17-29.41,25.18-34.34c10.6-3.27,21.29-3,32-.15,2.91.76,3.18,2.07,2.35,4.47-.92,2.64-1,6.7-2.73,7.66-2.3,1.24-3.83-2.79-5.94-4.26-12.14-8.48-30-3-35.21,11.14a38.7,38.7,0,0,0-.46,25.94c5.33,16.48,23.31,23.17,39.06,14.73C328.89,319.06,330.11,318.24,331.94,317.13Z"/><path class="cls-1" d="M133.87,320.8c-3.56,2.53-6.35,4.83-9.43,6.63-9.71,5.7-20.34,2.16-22.47-7.44a38.4,38.4,0,0,1-.63-7.44c-.2-9.63.55-19.31-1.42-28.85-.4-1.91,0-2.46,2-2.61,10.2-.74,10-.84,9.36,9.3-.42,6.81-.18,13.66-.13,20.49,0,7.36,3.19,11.35,8.91,11.55,6.49.22,12.4-4.39,12.64-10.92.34-9,1.14-18-.8-26.89-.61-2.77,0-3.55,2.94-3.54,8.74,0,8.42-.12,8.27,8.32-.22,12.29-1.38,24.66,1.34,36.83.53,2.36-.34,2.54-2.06,2.63a18.65,18.65,0,0,0-3,.27c-4.47.91-6.44-.72-5.61-5.37A20.93,20.93,0,0,0,133.87,320.8Z"/><path class="cls-1" d="M376.7,326.23c-2.57-9.31-2-18.86-1.68-28.31.41-13-3.11-18.75-19.58-17.73a29.25,29.25,0,0,0-3.92.69c-8,1.6-8,1.6-7.46,10.72,4.75-4.82,9.9-5.9,15.58-4.31,4,1.13,5.69,5,5.38,10.64-.24,4.44-3.76,3.43-6.21,4s-5.3.68-7.85,1.4c-5,1.43-9.84,3.38-12,8.82-2.22,5.64-.53,12.5,3.87,15.89s11.83,3.14,17.34-.49c2.11-1.4,3.6-3.8,6.42-4.34.4,5.66,3.8,7.66,8.95,5.7C377.13,328.35,377,327.46,376.7,326.23ZM360.41,322c-4.13,2.38-8.82,1.57-10.89-2a8.44,8.44,0,0,1,3-11.23,19.35,19.35,0,0,1,7-2.3c5.53-1.06,5.88-.7,5.73,5.64C365.33,315.68,364.59,319.58,360.41,322Z"/><path class="cls-1" d="M85.78,326.46C83.1,317,84,307.28,84,297.65c-.1-14.16-4.54-18.39-18.77-17.49a35.2,35.2,0,0,0-4.44.65c-7.92,1.56-7.91,1.57-7.89,10.44,6-4.37,10.06-5.42,15.07-4.15,4.5,1.14,6.28,4.55,6.1,10.57-.14,4.76-3.86,3.83-6.46,4.29-4.11.73-8.2,1.33-12.06,3-3.5,1.51-6.28,3.78-7.57,7.49C46,318,47,323,51,327.25c3.29,3.49,9.81,4.11,15,2.09,3.56-1.4,5.93-4.6,9.25-6.12,1.94,1.82-1.34,5.58,2.69,6a35.3,35.3,0,0,0,6-.21C85.44,328.94,86.29,328.27,85.78,326.46ZM69.36,322c-4,2.27-8.38,1.64-10.59-1.66A8.27,8.27,0,0,1,61.14,309,19.71,19.71,0,0,1,72,306.2c2.32,0,2.32.16,2.24,5.5C74.33,315.36,73.77,319.5,69.36,322Z"/><path class="cls-1" d="M433.66,302.33c7.83.13,15.66-.19,23.49,0,3.14.07,4-1.14,4.05-4.06.22-11.76-7.72-19.49-19.51-18.8-14.06.82-23.44,12.68-22.34,28.23,1,14.8,11.62,24.24,25.82,23,12-1,12.67-1.45,14.54-10.61-1.85.87-3.17,1.57-4.55,2.12-12.27,4.89-24.18-2.63-25.19-15.73C429.74,303.48,430.43,302.27,433.66,302.33ZM432,290a10.1,10.1,0,0,1,9.24-5.7,9,9,0,0,1,8.45,4.31c2.76,4.35,1,7.94-4.1,8.37-2.14.17-4.32,0-6.48,0v.16h-3C429.26,297.15,428.72,296.2,432,290Z"/><path class="cls-2" d="M210.22,302.28c6.63.28,13.3,0,19.95,0,7.42,0,7.58-.16,6.82-7.48a17.37,17.37,0,0,0-.59-2.92c-3.71-13-21.77-16.83-32.71-6.88-8.32,7.58-10.84,21.44-5.93,32.66,4.11,9.4,13.18,13.91,25.64,12.76,9.91-.92,9.91-.92,12.68-10.44-2,1-3.29,1.65-4.62,2.2-11.94,5-23.74-1.95-25.4-14.74C205.63,304,206,302.1,210.22,302.28Zm-2.16-12.52c3.65-6.71,13.48-7.5,17.47-1.41,3,4.5,1.18,8.22-4.21,8.62-2.15.16-4.32,0-6.48,0v.14h-2.5C205.26,297.14,204.63,296.06,208.06,289.76Z"/><path class="cls-1" d="M404.06,328.78c-2,0-3.63,0-5.27,0-7.23-.12-7.24-.13-6.56-7.75.86-9.64.4-19.3.41-28.95,0-3.76-1-6.05-5.41-4.84a8.36,8.36,0,0,1-2.22-.1c1-3.19,1.53-6.19,6-5.75,2.3.23,1.65-2,1.73-3.37.9-15.61,12-25.2,27.56-24,3.83.28,5.53,1.28,3.9,5.4-.83,2.09-1,4.43-1.56,7.17-3-2.2-5.13-4.84-8.66-5.27-5.81-.7-9.7,1.86-11,7.57-2.64,11.34-1,13.3,10.56,12.65,1.31-.07,2.63-.22,4.31-.36-.61,4.18-1.84,7.05-6.72,6.13-1.13-.21-2.35.13-3.49-.07-3.62-.62-4.91.79-5,4.46C402.07,304,401.79,316.24,404.06,328.78Z"/><path class="cls-3" d="M183.57,290c-3.06-3.32-6.32-5.42-10.67-5.09-3.2.25-6,1.3-6.85,4.71s.5,5.89,3.5,7.48c2.49,1.32,5,2.52,7.6,3.7,7.95,3.68,11.42,8.34,10.72,14.49-.87,7.58-6.54,13.54-14.68,14.78a38,38,0,0,1-13.39-.39c-3.34-.69-4.79-1.78-3.15-5.27.74-1.58.17-3.64,1.9-5.26,2.83,4.11,6.45,6.68,11.69,6,3.59-.45,6.51-1.94,7.52-5.55a7.15,7.15,0,0,0-3.83-8.83c-3.07-1.63-6.27-3-9.41-4.52-5.7-2.76-8.47-7.13-7.8-13.63.62-6.05,4.15-9.58,9.53-11.53A25.35,25.35,0,0,1,178,279.74C186.64,280.74,186.7,280.82,183.57,290Z"/><path class="cls-4" d="M238.66,89.75c-7.34-2.11-14.86-1.12-22.31-1.18-1.48,0-2.31,1.23-3.19,2.19-10.77,11.58-18.29,25.23-24.59,39.56-1.48,3.37-2.56,8,1.06,10.54,3.36,2.39,7.32,4.62,12.32,3.91,3.71.68,6.65-1.22,9.22-4.13a39.33,39.33,0,0,1,5.26-5.3c12.62-9.6,18.54-23.6,24.6-37.44C242.2,95.23,243.62,91.18,238.66,89.75Zm-39,47.14c-.89,1.94-.75,5.1-4.27,4.22-3.19-.81-6.28-1.93-5.55-6.35a16.66,16.66,0,0,1,.81-3.36c6.61-14,13-28.09,24.78-38.78a5.94,5.94,0,0,1,4.31-1.79c4.16,0,5,1.09,2.62,4.61-8.26,11.94-13.59,25.49-21.19,37.78A31.37,31.37,0,0,0,199.63,136.89ZM238.26,99c-6.2,16.64-16.82,30-30.12,41.42a6.33,6.33,0,0,1-3.38,2c-2.8.31-4.88,0-3.12-3.62,2.92-5.94,5.66-12,8.89-17.75,4.2-7.53,7.49-15.58,12.8-22.49a11.41,11.41,0,0,0,2.41-4.32c.59-3,2.18-3.89,5-3.34,1.15.13,2.31.21,3.46.39C239.65,92.07,240.22,93.69,238.26,99Z"/><path class="cls-5" d="M461.4,260.15c-5.89,5.05-11.85,10-17.65,15.19-1.5,1.34-2.21.38-3.32-.29-1.76-1.07-.95-2-.07-3.11,1.22-1.56,2.73-3.07,3.38-4.88C447,258.26,454.36,259.69,461.4,260.15Z"/><path class="cls-6" d="M210.57,169.65c2.06,1.22,1.27,3.26,1.29,4.95.08,8.64.26,17.29-.07,25.93-.21,5.41,2.21,10.41,1.82,15.76-.07,1,.35,2.69-1.45,2.52-1.26-.12-.92-1.52-1.09-2.45-2.5-14-1.48-28.12-1.8-42.19C209.22,172.24,209.29,172.23,210.57,169.65Z"/><path d="M212.4,221.32a4,4,0,0,1-.48,0c-1.43-.13-3.15-1-3.28-4.1,0-.14,0-.28,0-.4-1.85-10.35-1.82-20.85-1.78-31,0-3.79,0-7.72-.06-11.57-.06-2.35.16-2.86,1.33-5.22l1.42-2.89,2.33,1.39c3,1.76,2.71,4.64,2.57,6.19,0,.3-.06.6-.06.88,0,1.52,0,3,0,4.55.07,7,.16,14.32-.12,21.5a29.83,29.83,0,0,0,.88,7.08,31.48,31.48,0,0,1,.93,8.78c0,.12,0,.25,0,.39a4.41,4.41,0,0,1-1.17,3.53A3.64,3.64,0,0,1,212.4,221.32Z"/><path class="cls-7" d="M157.63,121.57c-1.25,1.59-2.67,1.3-3.95,1.31-9.49,0-19,0-28.48,0-1.34,0-3.58.61-3.57-1.47,0-1.73,2.12-1.1,3.32-1.11,9.66,0,19.32,0,29,0C155.21,120.28,156.63,120.05,157.63,121.57Z"/><path d="M123.52,125.44a4.48,4.48,0,0,1-3.2-1.09,3.93,3.93,0,0,1-1.19-3,3.58,3.58,0,0,1,1.15-2.72,5.1,5.1,0,0,1,4.07-.92l.58,0c9.79,0,19.69,0,29,0h.41a5.63,5.63,0,0,1,5.38,2.43l1,1.5-1.1,1.41a6.09,6.09,0,0,1-5.47,2.28h-.44c-9.06,0-18.78,0-28.5,0l-.61,0C124.26,125.42,123.9,125.44,123.52,125.44Z"/><path class="cls-8" d="M334.26,122.13c-16.79-4.33-34-.48-50.93-3.27C300.33,119.17,317.5,115.22,334.26,122.13Z"/><path d="M333.63,124.55c-8.94-2.31-17.91-2.21-27.41-2.11-7.62.09-15.51.17-23.3-1.11l.45-5c4.71.09,9.55-.17,14.22-.41,12.33-.64,25.07-1.31,37.62,3.87Z"/><path class="cls-9" d="M214.37,6.41c2.36,3.5,1.81,6.25,1.54,8.7-1.28,11.62-.74,23.26-.86,34.89,0,1.17,0,2.33-.13,3.49a1.18,1.18,0,0,1-1.3,1.18,1.28,1.28,0,0,1-1.17-1.38c0-2,.25-4,.22-6-.2-12.47.18-24.93,1-37.37C213.75,9.15,214,8.36,214.37,6.41Z"/><path d="M213.74,57.18h-.29a3.8,3.8,0,0,1-3.5-3.88c0-1,.06-2,.11-2.94s.12-2,.11-3c-.2-12,.15-24.63,1-37.58a13.51,13.51,0,0,1,.35-2.12c.1-.46.22-1,.35-1.72L213.06,0l3.38,5a13,13,0,0,1,2,9.83l-.06.54a221.5,221.5,0,0,0-.85,25.33c0,3,0,6.21,0,9.32,0,1.24,0,2.46-.15,3.69A3.65,3.65,0,0,1,213.74,57.18Z"/><path class="cls-10" d="M140.67,70.15c2.87-1.14,5-.05,7,1.34,2.94,2.13,5.79,4.4,8.54,6.77,4,3.46,8.82,4.88,14.34,5.48C165.7,86.93,165.7,86.93,140.67,70.15Z"/><path d="M166.63,87.88a10.81,10.81,0,0,1-4.49-1.17c-3.92-1.78-10.25-6-22.87-14.48l-4-2.65,4.43-1.75c4.06-1.61,7.13,0,9.34,1.63,2.88,2.09,5.81,4.41,8.71,6.91,3.2,2.75,7.2,4.26,13,4.88l6.88.75-5.76,3.82C170.09,87,168.58,87.88,166.63,87.88Z"/><path class="cls-8" d="M162.5,190.31c4.27-7.41,10.51-13.82,10.29-24.37C177.25,172.28,169.19,186.81,162.5,190.31Z"/><path d="M156,196.52l4.3-7.46c1-1.71,2.07-3.37,3.12-5,3.6-5.48,7-10.66,6.84-18.09l-.17-8.2,4.71,6.71c1.8,2.56,2.21,6.15,1.18,10.39-1.71,7.05-7.26,15-12.36,17.63Z"/><path class="cls-10" d="M277.45,55.5c-7.32,6.52-12.29,13.73-18.27,21C259.24,70.61,271.3,56.47,277.45,55.5Z"/><path d="M256.61,83.48l.07-7c.07-7.18,13.21-22.26,20.38-23.39l8.41-1.33-6.36,5.66c-5.29,4.71-9.29,9.76-13.53,15.11-1.44,1.82-2.93,3.7-4.48,5.57Z"/><path class="cls-11" d="M267.2,183.54l-20.34-14.63C250.53,167.65,264.59,177.08,267.2,183.54Z"/><path d="M272.76,190.62l-31.29-22.5,4.58-1.57c3.52-1.21,9.54,2.44,12.81,4.73,2,1.39,8.64,6.32,10.66,11.33Z"/><path class="cls-12" d="M174.92,120.94c-3.41,1.17-5.42.71-7.14-1-.15-.15.08-1,.35-1.2C170.72,117.27,172.23,119.3,174.92,120.94Z"/><path d="M171.61,124.08a7.6,7.6,0,0,1-5.59-2.36,2.8,2.8,0,0,1-.75-2.43,3.71,3.71,0,0,1,1.62-2.71c3.4-2,6-.12,7.84,1.22.48.34,1,.69,1.5,1l4.53,2.77-5,1.73A12.9,12.9,0,0,1,171.61,124.08Z"/></svg>