<?xml version="1.0" encoding="utf-8"?>
<!-- Generator: Adobe Illustrator 23.0.4, SVG Export Plug-In . SVG Version: 6.00 Build 0)  -->
<svg version="1.1" xmlns="http://www.w3.org/2000/svg" xmlns:xlink="http://www.w3.org/1999/xlink" x="0px" y="0px"
	 viewBox="0 0 461.7 324.1" style="enable-background:new 0 0 461.7 324.1;" xml:space="preserve">
<style type="text/css">
	.st0{fill:#FF0000;}
</style>
<g id="liquid-layer">
	<g>
		<path class="st0" d="M923.2-1.6V329H-0.1V-1.6C69.1-1.6,70-36,115.3-36S161.6-1.6,230.8-1.6c69.2,0,70.1-34.4,115.4-34.4
			S392.4-1.6,461.6-1.6C530.7-1.6,531.7-36,577-36c45.3,0,46.3,34.4,115.4,34.4c69.2,0,70.1-34.4,115.4-34.4S854.1-1.6,923.2-1.6z"
			/>
	</g>
</g>
<g id="logo-layer">
	<title>Logo-Placeholder</title>
	<g>
		<path d="M46.3,263.1c-2.3-7.3-8.2-11-18.2-11c-8.3,0-16.6,0.1-25,0.2c-1.1,0.1-2.1,0.2-3.2,0.5v69.3h14c-0.5-10-0.9-19.7-1.3-30.1
			c2.7,0,4.7,0,6.6,0c6.9-0.2,13.6-1.1,19.4-5.4C46,281.3,49.1,271.8,46.3,263.1z M21.1,284.9c-7.9,0.4-8.1,0.3-8.1-7.6
			c0-4,0-8,0.1-12c0.2-7.1,0.3-7.1,7.4-7.1c8.8,0,13.5,4.4,13.7,12.8C34.5,279.2,29.5,284.4,21.1,284.9z"/>
		<path d="M317.9,258.6c3.2,1.1,6.2,2.8,8.7,5.2c1,0.9,2.1,1.7,3.8,3.1c1.3-4.7,2.3-8.5,3.6-13.1c-16.6-4.9-32.3-5.4-46.6,4.4
			c-13.2,9-16.8,22.3-13.9,37.4c2.7,14.5,11.4,24.3,25.9,27c7.9,1.5,16.5,0.4,24.7-0.3c6-0.5,8.5-5.1,7.6-12.4
			c-1.7,0.9-3.2,1.8-4.8,2.6c-15.7,8.2-33.2,1.3-38.3-15.2c-2.5-7.8-2.4-16.3,0.3-24.1C292.8,261.2,305.8,254.6,317.9,258.6z"/>
		<path d="M132.4,300.6c0,2.2-0.3,4.3-0.9,6.4c-1.7,5.5-7.2,8.8-12.9,8c-4.6-0.7-6.9-4.1-7-10.5c-0.1-5.2,0-10.3,0-15.5v-14.8h-11
			c0,11.8-0.3,23.2,0.1,34.7c0.4,11.9,10.6,18.1,21.5,13.2c2.7-1.2,5-3.2,7.5-4.8c1-0.7,2-1.2,3.2-2c0.3,2.8,0.6,5,0.9,7.5L144,322
			v-47.7h-11.5C132.5,283.3,132.5,292,132.4,300.6z"/>
		<path d="M375,286.1c-0.3-8.1-4-12.5-12.1-13c-4.5-0.3-8.9,0-13.3,0.9c-6.7,1.3-7.4,2.8-6.2,9.1c5.2-0.9,9.9-2.3,14.6-2.4
			c4.3,0,6.3,3.9,6.5,9.1c0.2,4.7-3.3,4.2-6,4.9c-4.3,1.1-8.8,1.8-13,3.4c-4.9,1.8-7.7,5.8-8,11.1c-0.3,5.3,1.1,10,5.8,13
			c5.2,3.2,10.5,2.6,15.6-0.3c2.3-1.3,4.5-3,6.9-4.8c0.4,2.3,0.6,3.9,1,5.8l10.4-0.6c-0.6-2.5-1-5.1-1.2-7.7
			C375.6,305,375.3,295.5,375,286.1z M364,309.5c-1.1,4.3-4.5,6.5-8.9,6.5c-3.4,0-5.5-2-6.1-5.4c-0.8-4.7,1.2-7.8,5.6-9.2
			c3-0.9,6.1-1.4,10.2-2.2C364.5,303.3,364.8,306.5,364,309.5z"/>
		<path d="M72.9,273.2c-5.1-0.3-10.3,0.1-15.3,1c-5.7,1-7,4.5-5.1,8.9c5.1-0.9,9.8-2.3,14.5-2.4c4.2,0,6.3,3.9,6.5,9.1
			c0.2,4.7-3.3,4.2-6,4.9c-4.3,1.1-8.8,1.8-13,3.4c-4.9,1.8-7.7,5.8-8,11.1c-0.3,5.3,1,10,5.8,13c5.2,3.2,10.5,2.6,15.6-0.3
			c2.3-1.3,4.5-3,6.9-4.7c0.4,2.3,0.6,3.9,1,5.8l9.3-0.6c-0.4-13.2-0.7-25.9-1.4-38.6C83.5,277.6,79.3,273.6,72.9,273.2z
			 M69.1,314.6c-3.8,2.4-8,1.8-10.2-1.5c-2.3-3.5-1.3-8.9,2.6-10.7c3.5-1.6,7.4-2.3,11.2-3.4C74.6,307.2,73.4,311.9,69.1,314.6z"/>
		<path d="M447.9,272.6c-12.7-3.1-25.2,4.9-28.3,18c-3.7,15.6,3.4,30,16.6,32.5c5.4,1,11.2,0.4,16.7-0.3c5.1-0.6,6.8-3.9,6.2-9.6
			c-18.6,5.7-29.3-0.4-28.8-16.6c1.1-0.3,2.2-0.5,3.3-0.6c7.6-0.2,15.3-0.4,22.9-0.5c2.6,0,4.5-0.5,4.8-3.6
			C462.6,283,456.7,274.7,447.9,272.6z M450,285.9c-0.4,3.9-3.8,3.6-6.6,3.7c-4.1,0.2-8.2,0-12.7,0c0.7-9.2,6.9-14,13.9-11.3
			C448.1,279.7,450.4,282.1,450,285.9z"/>
		<path d="M222.3,272.3c-13.2-2.2-24.4,6.3-27.1,20.5c-2.9,14.9,4.6,28.3,17.7,30.6c4.9,0.7,9.9,0.6,14.8-0.1
			c6.2-0.8,7.5-2.8,7.8-10.3c-6.6,3.2-13.3,4.6-20.1,1.4c-6-2.8-9.4-9.7-8.9-17.7c1.1-0.3,2.2-0.4,3.3-0.5c7.7-0.2,15.3-0.4,23-0.4
			c3.1,0,4.6-1,4.7-4.2C237.9,281.5,231.9,273.9,222.3,272.3z M219.7,289.6c-4.1,0.5-8.3,0.2-12.7,0.2c-0.8-8.9,7.7-14.6,14.4-10.9
			c2.2,1.2,3.2,4.9,4.7,7.4C223.9,287.4,221.9,289.3,219.7,289.6z"/>
		<path d="M418.5,256.9c1.2,0.9,2.4,1.8,3.8,2.9c4.5-11.7,2.9-14.4-7.2-13.3c-13,1.5-21.3,9.8-23.2,22.9c-0.4,1.7-1.2,3.3-2.4,4.6
			c-1.8,1.8-3.8,3.6-5.8,5.2l1,1.4h7.2v41.6h11c0-11.5,0-22.8,0-34c0-8-0.7-7.9,7.6-7.3c5.1,0.4,6.7-1.9,7.7-6.8c-2.4,0-4.2,0-6,0
			c-10.2,0.1-10.7-0.5-9.2-10.6C404.1,255.3,411.7,252.1,418.5,256.9z"/>
		<path d="M179.4,294.5c-3.5-1.8-7.4-3.2-10.6-5.5c-1.5-1.1-2.9-4.2-2.5-5.8c0.6-1.9,3.1-4.2,5.1-4.5c2.7-0.3,5.7,0.9,8.4,1.8
			c1.3,0.4,2.3,1.6,4,2.9c0.8-3.3,1.4-6,2-9.1c-5.5-2.5-11.7-3-17.5-1.4c-7.4,1.7-11.8,6.4-12.4,13.1c-0.6,6.4,2.4,10.9,9.5,14.2
			c3.1,1.5,6.5,2.8,9.2,4.8c4.5,3.4,3.6,9.4-1.5,11.7c-3.9,1.9-8.5,1.2-11.6-1.7c-1.2-1-2.3-2.1-4-3.7c-0.8,3.2-1.7,5.6-1.9,8
			c0.1,1.3,0.9,2.5,2.1,3c7.6,2.3,15.1,2.5,22.2-1.5c5.1-2.8,8.3-8.2,8.1-14C188,300.8,184.5,297.1,179.4,294.5z"/>
		<path d="M201.3,141.8h0.6c4.6,0,9-2,11.9-5.5c2.1-2.5,4.5-4.8,7-6.9c12.2-10.3,18.2-24.6,23.6-37.3c1.5-3.6,1.6-6.5,0.2-9
			s-4.2-4.1-8.5-4.8c-2.4-0.3-4.8-0.5-7.2-0.6h-0.7l-0.6-1.8l-3.2,0.9c-1.2,0.3-2.5,0.6-3.9,0.8c-3.5,0.6-7.5,1.3-10.1,4
			c-10.1,9.9-17.9,22.5-25.4,40.7c-1.4,3.4-1.7,10.1,1.3,13.4C189.6,139.4,195.6,141.8,201.3,141.8z M224.7,95.8L224.7,95.8
			c1.5-2.5,2.9-5,4.4-7.6c0.6-0.6,3.8-1.1,6.2,0.1h0.1c-0.1,0.4-0.3,0.9-0.5,1.3c-0.1,0.2-0.2,0.5-0.3,0.8
			c-5.2,14.4-14.3,27.2-27.9,39l0.5-1.1c2.6-5.3,5.3-10.8,8.2-16.1C218.4,106.7,221.6,101.2,224.7,95.8z M193.7,126.5l0.6-1.3
			c6.2-13.6,12-26.4,22.9-36c0.1-0.1,0.3-0.2,0.4-0.3c-6.8,12.7-14.6,27.1-22.2,40.8c-0.8-0.4-1.5-1-2.1-1.7
			C193.4,127.5,193.5,127,193.7,126.5L193.7,126.5z"/>
		<path d="M443.2,268.9c6.3-5,12.3-10.4,18.4-15.6l-0.5-1c-2.8,0-5.6-0.4-8.3,0.1c-2.2,0.4-5,1.2-6.3,2.8c-3,3.5-5.2,7.6-8.4,12.4
			C440.1,268.1,442.5,269.5,443.2,268.9z"/>
		<path d="M205.8,163c0,2.8-0.1,5.5-0.2,8.3c-0.4,13.5-0.7,27.5,2.6,41.3l0.7,2.8l7.7-0.2l-1.8-55.6l-8.9,0.1L205.8,163z"/>
		<path d="M209,51.1l9.2,0.1V0.6L211.3,0c-2.6,14.6-3.4,30.2-2.4,47.8L209,51.1z"/>
		<path d="M272,116l76,2.9l-11.8-7c-7.5-4.5-48.1-6.8-55.4-1.8L272,116z"/>
		<path d="M158.8,112.4c-6-3.6-35.2-3.5-40.1,0.2l-8.4,6.3h59.2L158.8,112.4z"/>
		<path d="M149.2,73.6c4.9,4,10.3,8.5,18.3,8.5c1.1,0,2.1-0.1,3.2-0.2l10.2-1.4l-9-5.1l-5.2-2.9c-3.8-2.1-7.5-4.2-11-6.3
			c-1.1-0.7-2.1-1.4-3.1-2.2c-1.4-1.1-2.8-2.1-4.3-3c-1.6-0.8-3.3-1.3-5-1.6c-0.6-0.1-1.1-0.2-1.7-0.4l-3.2-0.9l-2.5,8.5l3.4,1
			C142.9,68.5,146,71,149.2,73.6z"/>
		<path d="M276.2,44.7c-8.6,2.5-20.7,16.9-21,24.9l-0.2,9.9l32.4-38L276.2,44.7z"/>
		<path d="M270.4,175.9c-1.9-5.8-9.8-12.4-16.2-15.6c-3.9-1.9-6.9-2.5-9.1-1.7l-6.5,2.2l35.2,25.4L270.4,175.9z"/>
		<path d="M176.9,170.2c1-3.3,1.9-7.8-0.3-10.9l-3.3-4.8l-18,35.2l8.3-2.9C169.5,184.6,174.8,176.8,176.9,170.2z"/>
	</g>
</g>
</svg>
