<?xml version="1.0" encoding="utf-8"?>
<!-- Generator: Adobe Illustrator 23.0.4, SVG Export Plug-In . SVG Version: 6.00 Build 0)  -->
<svg version="1.1" id="Calque_1" xmlns="http://www.w3.org/2000/svg" xmlns:xlink="http://www.w3.org/1999/xlink" x="0px" y="0px"
	 viewBox="0 0 262.8 410.3" style="enable-background:new 0 0 262.8 410.3;" xml:space="preserve">
<style type="text/css">
	.st0{fill:#8E5151;}
</style>
<title>liquid</title>
<path class="st0" d="M0,0v410.3h262.8V0H0z M92.9,407.3c-32,0-58-26-58-58s26-58,58-58c32,0,58,26,58,58S125,407.3,92.9,407.3z
	 M97.7,244.3c0-8.9,7.2-16.1,16.1-16.1c8.9,0,16.1,7.2,16.1,16.1s-7.2,16.1-16.1,16.1C104.9,260.4,97.7,253.2,97.7,244.3z M84.9,138
	c-37.6,0-68-30.4-68-68s30.4-68,68-68s68,30.4,68,68S122.5,138,84.9,138z M206.8,234.2c-21.6,0-39.1-17.5-39.1-39.1
	s17.5-39.1,39.1-39.1s39.1,17.5,39.1,39.1S228.4,234.2,206.8,234.2z"/>
</svg>
